<svg id="Layer_1" data-name="Layer 1" xmlns="http://www.w3.org/2000/svg" xmlns:xlink="http://www.w3.org/1999/xlink" viewBox="0 0 246.31 191.58"><defs><style>.cls-1{fill:#fff;}.cls-2{fill:url(#linear-gradient);}.cls-3{fill:url(#linear-gradient-2);}.cls-4{fill:url(#linear-gradient-3);}.cls-5{fill:url(#linear-gradient-4);}.cls-6{fill:url(#linear-gradient-5);}.cls-7{fill:url(#linear-gradient-6);}</style><linearGradient id="linear-gradient" x1="194.66" y1="178.56" x2="-7.93" y2="178.56" gradientUnits="userSpaceOnUse"><stop offset="0" stop-color="#00bbe7"/><stop offset="0.06" stop-color="#1ec3ea"/><stop offset="0.21" stop-color="#61d5f0"/><stop offset="0.34" stop-color="#9ae4f5"/><stop offset="0.47" stop-color="#c5f0fa"/><stop offset="0.58" stop-color="#e5f8fd"/><stop offset="0.68" stop-color="#f8fdfe"/><stop offset="0.74" stop-color="#fff"/></linearGradient><linearGradient id="linear-gradient-2" x1="194.66" y1="149.74" x2="-7.93" y2="149.74" xlink:href="#linear-gradient"/><linearGradient id="linear-gradient-3" x1="194.66" y1="117.35" x2="-7.93" y2="117.35" xlink:href="#linear-gradient"/><linearGradient id="linear-gradient-4" x1="194.66" y1="86.62" x2="-7.93" y2="86.62" xlink:href="#linear-gradient"/><linearGradient id="linear-gradient-5" x1="194.66" y1="57.58" x2="-7.93" y2="57.58" xlink:href="#linear-gradient"/><linearGradient id="linear-gradient-6" x1="194.66" y1="26.08" x2="-7.93" y2="26.08" xlink:href="#linear-gradient"/></defs><title>4cast-logo-only-reversed</title><polyline class="cls-1" points="151.71 0.24 151.71 22.42 183.16 36.92 183.16 18.91 151.71 0.24"/><polyline class="cls-1" points="128.21 37.35 128.21 57.63 193.84 73.08 193.95 56.69 128.21 37.35"/><polyline class="cls-1" points="151 171.45 151 191.58 193.84 185.26 193.84 171.22 151 171.45"/><polyline class="cls-2" points="147.89 171.34 0 165.64 0 181.68 147.89 191.47 147.89 171.34"/><polyline class="cls-1" points="151.43 140.11 151.43 160.27 193.84 163.14 193.84 149.29 151.43 140.11"/><polyline class="cls-3" points="147.89 139.68 0 139.74 0 155.77 147.89 159.81 147.89 139.68"/><polyline class="cls-1" points="86.23 105.11 86.23 125.26 246.31 140.33 246.31 124.33 86.23 105.11"/><polyline class="cls-4" points="83.12 104.89 0 113.9 0 129.8 83.12 125.14 83.12 104.89"/><polyline class="cls-1" points="101.43 69.26 101.43 89.41 246.31 112.44 246.31 96.57 101.43 69.26"/><polyline class="cls-5" points="98.31 69.28 0 87.94 0 103.97 98.31 89.4 98.31 69.28"/><polyline class="cls-6" points="125.09 37.1 0 62.03 0 78.06 125.09 57.66 125.09 37.1"/><polyline class="cls-7" points="148.59 0 0 36.03 0 52.16 148.59 22.25 148.59 0"/></svg>